<?xml version="1.0" encoding="utf-8"?>
<!-- Generator: Adobe Illustrator 16.0.0, SVG Export Plug-In . SVG Version: 6.00 Build 0)  -->
<!DOCTYPE svg PUBLIC "-//W3C//DTD SVG 1.1//EN" "http://www.w3.org/Graphics/SVG/1.1/DTD/svg11.dtd">
<svg version="1.1" id="Layer_1" xmlns="http://www.w3.org/2000/svg" xmlns:xlink="http://www.w3.org/1999/xlink" x="0px" y="0px"
	 width="40px" height="40px" viewBox="0 0 40 40" enable-background="new 0 0 40 40" xml:space="preserve">
<g>
	<polygon fill="#FFFFFF" points="21.344,33.359 21.344,34.797 20.702,34.797 20.702,37.664 22.773,37.664 22.773,33.359 	"/>
	<polygon fill="#FFFFFF" points="18.637,34.797 18.637,33.359 17.227,33.359 17.227,37.664 19.17,37.664 19.17,34.797 	"/>
</g>
<path fill="#FFFFFF" d="M20.702,2.509c0.036-0.205,0.146-0.398,0.327-0.59c0.195-0.165,0.367-0.302,0.525-0.372
	c0.157-0.067,0.401-0.109,0.719-0.109h14.473c0.328,0,0.561,0.042,0.718,0.109c0.158,0.07,0.328,0.207,0.524,0.372
	c0.195,0.192,0.305,0.385,0.33,0.59c0.035,0.22,0.084,0.467,0.146,0.755l-0.097,31.107c0.072,0.288,0.048,0.536-0.049,0.74
	c-0.086,0.218-0.209,0.396-0.33,0.535c-0.121,0.152-0.305,0.274-0.524,0.386c-0.22,0.108-0.426,0.163-0.621,0.163H22.177
	c-0.194,0-0.39-0.055-0.622-0.163c-0.22-0.11-0.391-0.232-0.523-0.386c-0.122-0.139-0.23-0.317-0.328-0.535L20.702,2.509
	L20.702,2.509z"/>
<path fill="#FFFFFF" d="M18.841,1.938c-0.195-0.165-0.366-0.302-0.524-0.372c-0.158-0.067-0.402-0.109-0.719-0.109h-5.739
	l-0.078,12.48l-2.984-1.915l-2.734,1.915L5.99,1.457H3.126c-0.329,0-0.561,0.042-0.719,0.109c-0.159,0.07-0.329,0.207-0.524,0.372
	C1.688,2.13,1.578,2.323,1.554,2.528c-0.037,0.22-0.085,0.467-0.146,0.755l0.097,31.107c-0.073,0.289-0.048,0.537,0.049,0.742
	c0.085,0.217,0.207,0.396,0.329,0.535c0.122,0.152,0.305,0.275,0.524,0.385c0.219,0.109,0.426,0.162,0.622,0.162h14.666
	c0.195,0,0.39-0.053,0.622-0.162c0.22-0.109,0.39-0.232,0.524-0.385c0.122-0.139,0.231-0.318,0.329-0.535V2.527
	C19.133,2.322,19.024,2.129,18.841,1.938z"/>
<g>
	<path fill="#FFFFFF" d="M17.6,1.438h-5.485v1.71H17.6c0.134,0,0.43,0.287,0.73,0.609l0.031-1.638
		C18.175,2.094,17.901,1.438,17.6,1.438z"/>
	<path fill="#FFFFFF" d="M3.147,35.799c-0.209-0.104-0.383-0.221-0.499-0.363c-0.116-0.131-0.232-0.299-0.313-0.504
		c-0.093-0.195-0.116-0.428-0.046-0.699L2.196,4.872C2.254,4.6,2.301,4.367,2.335,4.16c0.023-0.194,0.127-0.376,0.313-0.558
		c0.186-0.155,0.348-0.285,0.499-0.35s0.371-0.104,0.684-0.104h2.11v-1.71h-2.11c-0.487,0-0.916,0.078-1.276,0.246
		C2.196,1.854,1.86,2.086,1.559,2.397C1.256,2.695,1.048,3.071,0.932,3.512c-0.127,0.44-0.221,0.894-0.279,1.359L0.746,34.23
		c-0.058,0.467,0,0.92,0.186,1.36c0.174,0.438,0.383,0.815,0.626,1.113c0.243,0.312,0.58,0.544,0.997,0.714
		c0.429,0.167,0.824,0.245,1.183,0.245h13.954L18.279,6.46L3.739,35.954C3.553,35.954,3.356,35.902,3.147,35.799z"/>
	<path fill="#FFFFFF" d="M21.729,3.252l0.564,31.813L22.1,3.17C21.948,3.187,21.814,3.212,21.729,3.252z"/>
	<path fill="#FFFFFF" d="M18.33,3.758l-0.051,2.704l0.891-1.807C19.086,4.618,18.705,4.161,18.33,3.758z"/>
	<path fill="#FFFFFF" d="M39.348,4.872c-0.059-0.466-0.15-0.919-0.268-1.359c-0.127-0.441-0.335-0.817-0.637-1.115
		c-0.303-0.312-0.639-0.544-1-0.713c-0.356-0.168-0.787-0.246-1.264-0.246H22.311c-0.176,0,0.018,0.697-0.215,0.722L22.1,3.17
		c0.096-0.011,0.188-0.021,0.303-0.021h13.779c0.301,0,0.522,0.039,0.672,0.104c0.151,0.065,0.324,0.195,0.498,0.35
		c0.187,0.182,0.291,0.363,0.326,0.558c0.023,0.207,0.068,0.44,0.127,0.712l-0.093,29.359c0.07,0.272,0.046,0.506-0.034,0.701
		c-0.093,0.205-0.195,0.373-0.326,0.504c-0.115,0.143-0.289,0.258-0.498,0.362c-0.207,0.104-0.404,0.155-0.592,0.155H22.311
		l-0.017-0.889l0.017,2.599c0.021,0,0.045,0,0.045,0h13.906c0.372,0,0.756-0.078,1.184-0.245c0.42-0.17,0.755-0.402,0.998-0.714
		c0.244-0.298,0.451-0.674,0.638-1.113c0.175-0.44,0.233-0.895,0.175-1.36L39.348,4.872z"/>
</g>
<path fill="#FFFFFF" d="M19.17,37.664v2.752c0,0-1.943-2.752-6.003-2.751"/>
<path fill="#FFFFFF" d="M20.702,37.664v2.752c0,0,2.071-2.752,6.131-2.753"/>
<polygon fill="#FFFFFF" points="5.959,13.938 8.858,12.452 11.757,13.938 "/>
<polygon fill="#FFFFFF" points="5.959,13.961 8.918,11.75 11.876,13.961 "/>
</svg>
