<?xml version="1.0" encoding="utf-8"?>
<!-- Generator: Adobe Illustrator 16.0.0, SVG Export Plug-In . SVG Version: 6.00 Build 0)  -->
<!DOCTYPE svg PUBLIC "-//W3C//DTD SVG 1.1//EN" "http://www.w3.org/Graphics/SVG/1.1/DTD/svg11.dtd">
<svg version="1.1" id="Layer_1" xmlns="http://www.w3.org/2000/svg" xmlns:xlink="http://www.w3.org/1999/xlink" x="0px" y="0px"
	 width="40px" height="40px" viewBox="0 0 40 40" enable-background="new 0 0 40 40" xml:space="preserve">
<g>
	<g>
		<path fill="#FFFFFF" d="M9.422,12.366c-1.1,0-2.29-0.852-2.644-1.894L5.771,7.515C5.417,6.473,4.233,5.513,3.142,5.381
			L2.862,5.347C1.771,5.215,0.905,5.504,0.939,5.989s0.822,0.882,1.75,0.882s1.932,0.866,2.231,1.925l4.987,17.646
			c0.299,1.059,1.444,1.925,2.544,1.925h14.75c1.1,0,2.287-0.854,2.638-1.896l4.104-12.209c0.351-1.042-0.263-1.896-1.362-1.896
			H9.422z M29.701,24.479c-0.362,1.038-1.56,1.888-2.659,1.888h-14.04c-1.1,0-2.215-0.874-2.478-1.942L8.28,15.308
			c-0.263-1.068,0.422-1.942,1.522-1.942h21.78c1.1,0,1.703,0.85,1.341,1.888L29.701,24.479z"/>
	</g>
	<g>
		<path fill="#FFFFFF" d="M32.097,12.871c1.204,0,1.886,0.938,1.513,2.083l-3.445,10.584c-0.373,1.146-1.664,2.083-2.868,2.083
			H12.599c-1.205,0-2.411-0.961-2.681-2.136L7.514,15.006c-0.27-1.174,0.496-2.135,1.701-2.135H32.097z"/>
	</g>
</g>
<circle fill="#FFFFFF" cx="14.606" cy="32.621" r="3.271"/>
<circle fill="#FFFFFF" cx="25.292" cy="32.621" r="3.271"/>
</svg>
