<?xml version="1.0" encoding="utf-8"?>
<!-- Generator: Adobe Illustrator 16.0.0, SVG Export Plug-In . SVG Version: 6.00 Build 0)  -->
<!DOCTYPE svg PUBLIC "-//W3C//DTD SVG 1.1//EN" "http://www.w3.org/Graphics/SVG/1.1/DTD/svg11.dtd">
<svg version="1.1" id="Layer_1" xmlns="http://www.w3.org/2000/svg" xmlns:xlink="http://www.w3.org/1999/xlink" x="0px" y="0px"
	 width="40px" height="40px" viewBox="0 0 40 40" enable-background="new 0 0 40 40" xml:space="preserve">
<g>
	<path fill="#FFFFFF" d="M14,17v19h19.444C34.648,36,36,34.986,36,33.735V17H14z"/>
	<path fill="#FFFFFF" d="M13,17H4v16.735C4,34.986,4.977,36,6.181,36H13V17z"/>
</g>
<g>
	<path fill="#FFFFFF" d="M13,8H3c-1.104,0-2,0.896-2,2v4c0,1.104,0.896,2,2,2h10V8z"/>
	<path fill="#FFFFFF" d="M37,8H14v8h23c1.104,0,2-0.896,2-2v-4C39,8.896,38.104,8,37,8z"/>
</g>
<path fill="none" stroke="#FFFFFF" stroke-width="0.8993" stroke-miterlimit="10" d="M5.538,4.118
	c0.801-1.082,2.447-1.235,4.518,0.298c2.07,1.533,2.988,3.613,2.187,4.695c-0.802,1.082-2.75-0.1-5.303-0.131
	C4.011,8.943,4.736,5.2,5.538,4.118z"/>
<path fill="none" stroke="#FFFFFF" stroke-width="0.8768" stroke-miterlimit="10" d="M20.978,4.238
	c-0.719-1.033-2.293-1.105-4.359,0.513c-2.065,1.62-2.523,3.527-1.806,4.562c0.717,1.033,2.125-0.035,4.582-0.189
	C22.213,8.946,21.695,5.271,20.978,4.238z"/>
</svg>
