<?xml version="1.0" encoding="utf-8"?>
<!-- Generator: Adobe Illustrator 16.0.0, SVG Export Plug-In . SVG Version: 6.00 Build 0)  -->
<!DOCTYPE svg PUBLIC "-//W3C//DTD SVG 1.1//EN" "http://www.w3.org/Graphics/SVG/1.1/DTD/svg11.dtd">
<svg version="1.1" id="Layer_1" xmlns="http://www.w3.org/2000/svg" xmlns:xlink="http://www.w3.org/1999/xlink" x="0px" y="0px"
	 width="40px" height="40px" viewBox="0 0 40 40" enable-background="new 0 0 40 40" xml:space="preserve">
<g>
	<path fill-rule="evenodd" clip-rule="evenodd" fill="none" d="M123.873-58.822c-1.367-2.974-4.693-3.462-6.938-5.389
		c-10.809-9.272-13.984-21.215-13.1-34.783c24,0,48,0,72,0c0.926,13.08-1.65,24.806-12.203,33.852
		c-2.766,2.371-6.322,3.398-8.805,6.057c-9.404-2.264-18.754-2.933-27.941,0.981C126.098-59.246,124.943-58.862,123.873-58.822z"/>
	<path fill="#FFFFFF" d="M20,0C8.954,0,0,8.954,0,20s8.954,20,20,20s20-8.954,20-20S31.046,0,20,0z M6.706,21.375
		c0.084-1.308-0.856-1.917-1.914-2.19c-0.885-0.229-1.342-0.782-1.851-1.368C1.729,13.319,3.76,9.993,7.107,7.136
		C7.525,6.779,7.93,6.406,7.914,5.8C8.11,5.455,8.457,5.391,8.82,5.363c1.864-0.168,3.276-1.38,4.939-2.002
		c0.459,0.081,0.973-0.136,1.404,0.237c-0.422,1.007-1.717,0.734-2.349,1.428c1.087,1.4,1.952,0.706,3.001-0.108
		c2.147-1.673,4.019-1.316,4.934,0.791c-0.864,0.385-2.369-0.438-2.636,0.566c-0.477,1.793-1.73,1.954-3.184,2.154
		c-1.099,0.152-1.859,0.847-2.466,1.697c-0.752,1.569-2.854,2.179-3.104,4.113c-1.258-1.171-3.848-0.514-4.789,1.191
		c-0.255,0.461-0.619,0.987-0.134,1.457c0.464,0.449,1.032,0.626,1.651,0.108c0.238-0.197,0.618-0.237,0.932-0.349
		c-0.146,0.61-1.033,1.444-0.535,1.725c1.35,0.758,0.727,2.155,1.413,3.058C7.5,21.412,7.103,21.391,6.706,21.375z M17.997,37.235
		c-0.218,0.156-0.498,0.281-0.64,0.484c-0.819,1.191-1.162,1.244-1.914,0.125c-0.873-1.309-1.257-2.813-1.655-4.293
		c-0.175-0.662-0.3-1.424-0.86-1.777c-1.801-1.119-2.913-2.797-4.145-4.385c0-0.594-0.093-1.205,0.025-1.773
		c0.184-0.898,0.518-1.77,0.768-2.652c0.101-0.357,0.042-0.555-0.108-0.666c-0.05-0.037-0.109-0.064-0.171-0.084
		c-0.176-0.057-0.397-0.064-0.61-0.084c-0.083-0.004-0.163-0.012-0.238-0.025c-0.05-0.008-0.096-0.016-0.142-0.027
		c-0.096-0.023-0.176-0.057-0.242-0.104c-0.125-0.098-0.192-0.258-0.142-0.53c0.08-0.016,0.163-0.031,0.242-0.043
		c0.055-0.014,0.113-0.021,0.171-0.029c0.543-0.092,1.099-0.156,1.567-0.381c2.491-1.208,4.605-0.168,6.736,0.905
		c0.13,0.723,0.752,0.92,1.341,1.092c0.552,0.16,1.196,0.354,1.33,0.852c0.568,2.143,2.323,2.254,4.124,2.443
		c1.188,0.123,2.132,0.613,2.109,1.986C24.105,32.091,21.311,34.864,17.997,37.235z M35.497,12.196
		c2.344,1.416,2.481,3.815,2.911,6.07c0.126,0.646,0.077,1.32,0.109,1.982c-0.276,1.035,0.326,2.118-0.301,3.401
		c-0.111-1.605-1.68-1.381-2.068-1.203c-2.177,0.99-2.441-0.719-3.18-1.81c-0.669-1.284-0.306-2.672-0.436-4.008
		c0.017-1.553,1.379-2.576,1.713-4C34.665,12.484,35.082,12.34,35.497,12.196z"/>
</g>
</svg>
