<?xml version="1.0" encoding="utf-8"?>
<!-- Generator: Adobe Illustrator 16.0.0, SVG Export Plug-In . SVG Version: 6.00 Build 0)  -->
<!DOCTYPE svg PUBLIC "-//W3C//DTD SVG 1.1//EN" "http://www.w3.org/Graphics/SVG/1.1/DTD/svg11.dtd">
<svg version="1.1" id="Layer_1" xmlns="http://www.w3.org/2000/svg" xmlns:xlink="http://www.w3.org/1999/xlink" x="0px" y="0px"
	 width="40px" height="40px" viewBox="0 0 40 40" enable-background="new 0 0 40 40" xml:space="preserve">
<g>
	<ellipse fill="none" stroke="#FFFFFF" stroke-miterlimit="10" cx="4.745" cy="34.553" rx="3.508" ry="3.421"/>
	<ellipse fill="none" stroke="#FFFFFF" stroke-miterlimit="10" cx="11.762" cy="13.833" rx="3.508" ry="3.421"/>
	<ellipse fill="none" stroke="#FFFFFF" stroke-miterlimit="10" cx="28.238" cy="28.128" rx="3.508" ry="3.421"/>
	<ellipse fill="none" stroke="#FFFFFF" stroke-miterlimit="10" cx="35.256" cy="4.724" rx="3.508" ry="3.421"/>
	<path fill="#FFFFFF" d="M11.151,17.206c0.08-0.235-0.067-0.498-0.328-0.588l0,0c-0.262-0.09-0.54,0.028-0.62,0.263L5.355,31.035
		c-0.081,0.235,0.066,0.499,0.328,0.588l0,0c0.261,0.09,0.539-0.027,0.62-0.263L11.151,17.206z"/>
	<path fill="#FFFFFF" d="M14.238,16.157c-0.179-0.172-0.17-0.473,0.02-0.673l0,0c0.19-0.201,0.492-0.225,0.671-0.053l10.833,10.321
		c0.18,0.171,0.171,0.473-0.021,0.673l0,0c-0.189,0.199-0.491,0.224-0.672,0.052L14.238,16.157z"/>
	<path fill="#FFFFFF" d="M34.588,8.239c0.067-0.273-0.094-0.549-0.362-0.616l0,0c-0.269-0.067-0.542,0.1-0.609,0.373l-4.111,16.436
		c-0.068,0.272,0.094,0.551,0.362,0.617l0,0c0.268,0.068,0.541-0.099,0.61-0.373L34.588,8.239z"/>
</g>
</svg>
