<?xml version="1.0" encoding="utf-8"?>
<!-- Generator: Adobe Illustrator 16.0.0, SVG Export Plug-In . SVG Version: 6.00 Build 0)  -->
<!DOCTYPE svg PUBLIC "-//W3C//DTD SVG 1.1//EN" "http://www.w3.org/Graphics/SVG/1.1/DTD/svg11.dtd">
<svg version="1.1" id="Layer_1" xmlns="http://www.w3.org/2000/svg" xmlns:xlink="http://www.w3.org/1999/xlink" x="0px" y="0px"
	 width="40px" height="40px" viewBox="0 0 40 40" enable-background="new 0 0 40 40" xml:space="preserve">
<path fill="#FFFFFF" d="M27.317,0H13.231C11.4,0,11,1.885,11,4.21v31.579C11,38.114,11.4,40,13.231,40h14.086
	C29.147,40,30,38.114,30,35.789V4.21C30,1.885,29.147,0,27.317,0z M18.116,3h4.768c0.33,0,0.597,0.209,0.597,0.5S23.214,4,22.884,4
	h-4.768c-0.329,0-0.595-0.209-0.595-0.5S17.787,3,18.116,3z M20.5,38.452c-1.099,0-1.989-0.787-1.989-1.757
	c0-0.971,0.891-1.757,1.989-1.757c1.1,0,1.989,0.786,1.989,1.757C22.489,37.665,21.6,38.452,20.5,38.452z M29,34H12V6h17V34z"/>
</svg>
