<?xml version="1.0" encoding="utf-8"?>
<!-- Generator: Adobe Illustrator 16.0.0, SVG Export Plug-In . SVG Version: 6.00 Build 0)  -->
<!DOCTYPE svg PUBLIC "-//W3C//DTD SVG 1.1//EN" "http://www.w3.org/Graphics/SVG/1.1/DTD/svg11.dtd">
<svg version="1.1" id="Layer_1" xmlns="http://www.w3.org/2000/svg" xmlns:xlink="http://www.w3.org/1999/xlink" x="0px" y="0px"
	 width="40px" height="40px" viewBox="0 0 40 40" enable-background="new 0 0 40 40" xml:space="preserve">
<path fill="#FFFFFF" d="M38.233,32H24v0.069C24,32.583,23.583,33,23.069,33h-7.139C15.417,33,15,32.583,15,32.069V32H1.746
	c-0.796,0-1.44,0.586-1.44,1s0.645,1,1.44,1h36.487c0.796,0,1.441-0.586,1.441-1S39.029,32,38.233,32z"/>
<path fill="#FFFFFF" d="M33,7H7c-2.209,0-4,1.791-4,4v14c0,2.209,1.791,4,4,4h26c2.209,0,4-1.791,4-4V11C37,8.791,35.209,7,33,7z
	 M35,27H5V9h30V27z"/>
</svg>
