<?xml version="1.0" encoding="utf-8"?>
<!-- Generator: Adobe Illustrator 16.0.0, SVG Export Plug-In . SVG Version: 6.00 Build 0)  -->
<!DOCTYPE svg PUBLIC "-//W3C//DTD SVG 1.1//EN" "http://www.w3.org/Graphics/SVG/1.1/DTD/svg11.dtd">
<svg version="1.1" id="Layer_1" xmlns="http://www.w3.org/2000/svg" xmlns:xlink="http://www.w3.org/1999/xlink" x="0px" y="0px"
	 width="40px" height="40px" viewBox="0 0 40 40" enable-background="new 0 0 40 40" xml:space="preserve">
<path fill="none" stroke="#FFFFFF" stroke-width="2.1134" stroke-miterlimit="10" d="M30.294,13.817
	c0.262,0.154,0.525,0.306,0.787,0.452c0.402,0.223,0.747,0.473,1.048,0.74V8.098c0-2.298-1.922-4.161-4.292-4.161H5.293
	C2.923,3.938,1,5.8,1,8.098v17.683c0,2.298,1.923,4.161,4.293,4.161h4.435c-0.116-0.473-0.171-0.991-0.141-1.561
	c0.004-0.081,0.019-0.159,0.025-0.24"/>
<path fill="#FFFFFF" stroke="#FFFFFF" stroke-width="2" stroke-miterlimit="10" d="M35.35,10H12.808C10.436,10,9,11.921,9,14.219
	v17.683C9,34.199,10.436,36,12.808,36H35.35c2.372,0,3.65-1.801,3.65-4.099V14.219C39,11.921,37.722,10,35.35,10z M20.144,14.393
	c2.271,0,4.112,1.785,4.112,3.987s-1.841,3.988-4.112,3.988c-2.272,0-4.115-1.786-4.115-3.988S17.871,14.393,20.144,14.393z
	 M26.434,35h-8.84h-6.307l7.11-12.461l3.484,5.17l6.088-9.635L36.87,35H26.434z"/>
</svg>
