<?xml version="1.0" encoding="utf-8"?>
<!-- Generator: Adobe Illustrator 16.0.0, SVG Export Plug-In . SVG Version: 6.00 Build 0)  -->
<!DOCTYPE svg PUBLIC "-//W3C//DTD SVG 1.1//EN" "http://www.w3.org/Graphics/SVG/1.1/DTD/svg11.dtd">
<svg version="1.1" id="Layer_1" xmlns="http://www.w3.org/2000/svg" xmlns:xlink="http://www.w3.org/1999/xlink" x="0px" y="0px"
	 width="40px" height="40px" viewBox="0 0 40 40" enable-background="new 0 0 40 40" xml:space="preserve">
<path fill="#FFFFFF" stroke="#FFFFFF" d="M32.706,14.5h-0.087c-0.067-7-5.744-12.875-12.744-12.875
	c-7.042,0-12.75,5.583-12.75,12.625c0,1.059,0.144,2.02,0.387,3.003c0.754,4.479,3.363,13.137,12.343,22.778l-0.06-13.145
	c0.027,0,0.053-0.004,0.08-0.004c0.083,0,0.163-0.015,0.245-0.017l-0.06,13.386C33.102,26.251,32.706,14.5,32.706,14.5z
	 M19.916,22.333c-4.602,0-8.333-3.731-8.333-8.333s3.73-8.333,8.333-8.333c4.603,0,8.333,3.73,8.333,8.333
	S24.519,22.333,19.916,22.333z"/>
</svg>
