<?xml version="1.0" encoding="utf-8"?>
<!-- Generator: Adobe Illustrator 16.0.0, SVG Export Plug-In . SVG Version: 6.00 Build 0)  -->
<!DOCTYPE svg PUBLIC "-//W3C//DTD SVG 1.1//EN" "http://www.w3.org/Graphics/SVG/1.1/DTD/svg11.dtd">
<svg version="1.1" id="Layer_1" xmlns="http://www.w3.org/2000/svg" xmlns:xlink="http://www.w3.org/1999/xlink" x="0px" y="0px"
	 width="40px" height="40px" viewBox="0 0 40 40" enable-background="new 0 0 40 40" xml:space="preserve">
<path fill="#FFFFFF" d="M30.514,0H8.485C6.167,0,5,2.436,5,4.905v30.189C5,37.565,6.167,40,8.485,40h22.029
	C32.832,40,34,37.565,34,35.095V4.905C34,2.436,32.832,0,30.514,0z M19.5,38.712c-0.743,0-1.345-0.599-1.345-1.337
	s0.602-1.338,1.345-1.338s1.345,0.6,1.345,1.338S20.243,38.712,19.5,38.712z M32,35H7V4h25V35z"/>
</svg>
