<?xml version="1.0" encoding="utf-8"?>
<!-- Generator: Adobe Illustrator 16.0.0, SVG Export Plug-In . SVG Version: 6.00 Build 0)  -->
<!DOCTYPE svg PUBLIC "-//W3C//DTD SVG 1.1//EN" "http://www.w3.org/Graphics/SVG/1.1/DTD/svg11.dtd">
<svg version="1.1" id="Layer_1" xmlns="http://www.w3.org/2000/svg" xmlns:xlink="http://www.w3.org/1999/xlink" x="0px" y="0px"
	 width="40px" height="40px" viewBox="0 0 40 40" enable-background="new 0 0 40 40" xml:space="preserve">
<g>
	<polygon fill="#FFFFFF" points="29.875,22.878 36.61,26.913 36.61,12.172 29.875,16.208 	"/>
	<polygon fill="#FFFFFF" points="37.926,11.384 37.926,27.701 39.688,28.757 39.688,10.328 	"/>
	<polygon fill="#FFFFFF" points="28.561,16.997 24.313,19.543 28.561,22.088 	"/>
</g>
<path fill="#FFFFFF" d="M23.781,7.397H4.966c-2.638,0-4.778,2.451-4.778,5.474v0.455h2.169c0.685,0,1.24,0.636,1.24,1.421
	c0,0.783-0.555,1.419-1.24,1.419H0.188v10.047c0,3.022,2.14,5.474,4.778,5.474h18.815c2.64,0,4.779-2.451,4.779-5.474V12.871
	C28.561,9.848,26.421,7.397,23.781,7.397z"/>
</svg>
